<svg id="Layer_1" data-name="Layer 1" xmlns="http://www.w3.org/2000/svg" viewBox="0 0 291.29 271.09"><defs><style>.cls-1,.cls-5{fill:#131625;}.cls-2{fill:#f8b60d;}.cls-3{fill:#f1f2f1;}.cls-4{fill:none;}.cls-5{font-size:27.64px;font-family:Montserrat-Black, Montserrat;font-weight:800;}.cls-6{letter-spacing:-0.03em;}.cls-7{letter-spacing:-0.01em;}.cls-8{letter-spacing:0em;}.cls-9{letter-spacing:-0.01em;}</style></defs><title>Halal Kabab Website Logo</title><path class="cls-1" d="M218.2,67.56a98.86,98.86,0,0,0-151.57,126H228.09A99,99,0,0,0,218.2,67.56Z"/><path class="cls-1" d="M66,52.92A116.65,116.65,0,0,1,249.1,193.56h20.52a135.12,135.12,0,1,0-244.52,0H45.62A116.84,116.84,0,0,1,66,52.92Z"/><path class="cls-1" d="M147.36,271.09a134.47,134.47,0,0,0,73.77-21.9H73.6A134.44,134.44,0,0,0,147.36,271.09Z"/><path class="cls-2" d="M231,55.15A116.65,116.65,0,0,0,45.62,193.56h21a98.85,98.85,0,1,1,161.46,0h21A116.85,116.85,0,0,0,231,55.15Z"/><path class="cls-3" d="M77.85,107S66.94,128.6,85,132.63c0,0,27.29,6.4,26.8-15.89-.29-13.2-1.9-34.87-6.4-52.43l4-8.78,7.12,10.92s-1,23.69.39,51.55c.5,9.82-6.09,26.49-28.15,26.49,0,0-19.1.09-19.93-18.26C68.83,126.23,68.83,113.77,77.85,107Z"/><path class="cls-2" d="M118.81,73.88v12A4.3,4.3,0,0,0,123,90.52s13.72,1.15,18.86,22.34C141.9,112.86,146.25,84.4,118.81,73.88Z"/><path class="cls-3" d="M110.84,143.89s41.82-7.54,51.62-75.71l4.59,8.23s-2.85,55.51,21,52.19c0,0,12.34-1.27,18.66-6.48,0,0-14.07-12-28.31-1.43,0,0,7.12-21.59,25.63-14.35,0,0,20.4,10.71,34.47,10.56l-7.11,12a53.46,53.46,0,0,0-23.09,2.37s-5.86,2.05-10.92,4.27c0,0-27.33,14.3-33.68-15.18a128.62,128.62,0,0,1-2.06-27.84S161.35,148.69,110.84,143.89Z"/><rect class="cls-1" y="191.83" width="291.29" height="9.79"/><rect class="cls-1" y="240.39" width="291.29" height="9.79"/><path class="cls-4" d="M284,303.49H13.85V253H284ZM302.6-9.75H-4.75V178.16H302.6Z"/><text class="cls-5" transform="translate(21.21 231.05)"><tspan class="cls-6">K</tspan><tspan x="20.18" y="0">ABAB &amp; </tspan><tspan class="cls-7" x="145.52" y="0">C</tspan><tspan class="cls-8" x="165.8" y="0">UR</tspan><tspan class="cls-9" x="208.06" y="0">R</tspan><tspan x="228.38" y="0">Y</tspan></text><path class="cls-1" d="M6.24,218.73,6.09,237H7.74l-.08-18.25c1.74-.36,3.07-2.12,3.1-5.45,0-3.77-1.62-8.14-3.7-8.15s-3.8,4.32-3.83,8.09C3.21,216.57,4.51,218.34,6.24,218.73Z"/><path class="cls-1" d="M284.52,237.35h1.59L286,219.57l2.37-3.57-.6-11.21h-.5c0,4.85-.17,8.76-.36,8.76s-.34-3.91-.33-8.76h-.83c0,4.85-.16,8.77-.35,8.77s-.34-3.92-.34-8.77h-.82c0,4.85-.17,8.77-.36,8.77s-.34-3.92-.33-8.77h-.69L282.26,216l2.35,3.58Z"/><path class="cls-3" d="M103.25,160.55v10.56h7.06V160.55h7v28.12h-7V178.1h-7.06v10.57h-7V160.55Z"/><path class="cls-3" d="M139.1,188.67H132v-3.51h-5.3v3.51h-7a73,73,0,0,1,.74-11.73q1.26-7.33,5-11.34,4.74-5.06,13.59-5ZM132,170c-1.52,0-2.84,1.14-4,3.44a11.08,11.08,0,0,0-1.33,4.7H132Z"/><path class="cls-3" d="M149.28,160.55v21.13h7.05v7h-14V160.55Z"/><path class="cls-3" d="M177.79,188.67h-7.06v-3.51h-5.3v3.51h-7a73,73,0,0,1,.74-11.73q1.26-7.33,5-11.34,4.74-5.06,13.59-5ZM170.73,170c-1.52,0-2.84,1.14-4,3.44a11.08,11.08,0,0,0-1.33,4.7h5.3Z"/><path class="cls-3" d="M188,160.55v21.13H195v7H181V160.55Z"/><polygon class="cls-2" points="75.38 176.96 92.99 176.96 92.99 173.56 75.38 173.56 66.05 175.26 75.38 176.96"/><path class="cls-2" d="M214.64,163.15a12,12,0,0,0-11.9,10.4h-12V177h12a12,12,0,1,0,11.87-13.81Zm0,20.7a8.68,8.68,0,1,1,8.68-8.67A8.67,8.67,0,0,1,214.64,183.85Z"/></svg>